<svg width="24" height="24" viewBox="0 0 24 24" fill="none" xmlns="http://www.w3.org/2000/svg">
<g clip-path="url(#clip0_14_71)">
<path fill-rule="evenodd" clip-rule="evenodd" d="M23.25 12C23.2522 9.62986 21.6661 7.55217 19.3792 6.92953C17.0923 6.3069 14.6718 7.29375 13.4722 9.33787C12.2725 11.382 12.5912 13.9764 14.25 15.6694V21C14.2498 21.2601 14.3844 21.5017 14.6056 21.6384C14.8268 21.7752 15.103 21.7876 15.3356 21.6712L18 20.3381L20.6644 21.6712C20.897 21.7876 21.1732 21.7752 21.3944 21.6384C21.6156 21.5017 21.7502 21.2601 21.75 21V15.6694C22.7119 14.6903 23.2506 13.3725 23.25 12ZM18 8.25C20.0711 8.25 21.75 9.92893 21.75 12C21.75 14.0711 20.0711 15.75 18 15.75C15.9289 15.75 14.25 14.0711 14.25 12C14.25 9.92893 15.9289 8.25 18 8.25ZM18.3356 18.8288C18.1244 18.723 17.8756 18.723 17.6644 18.8288L15.75 19.7869V16.7428C17.1738 17.4191 18.8262 17.4191 20.25 16.7428V19.7869L18.3356 18.8288ZM12.75 18C12.75 18.4142 12.4142 18.75 12 18.75H3.75C2.92157 18.75 2.25 18.0784 2.25 17.25V5.25C2.25 4.42157 2.92157 3.75 3.75 3.75H20.25C21.0784 3.75 21.75 4.42157 21.75 5.25C21.75 5.66421 21.4142 6 21 6C20.5858 6 20.25 5.66421 20.25 5.25H3.75V17.25H12C12.4142 17.25 12.75 17.5858 12.75 18ZM11.25 12.75C11.25 13.1642 10.9142 13.5 10.5 13.5H6.75C6.33579 13.5 6 13.1642 6 12.75C6 12.3358 6.33579 12 6.75 12H10.5C10.9142 12 11.25 12.3358 11.25 12.75ZM11.25 9.75C11.25 10.1642 10.9142 10.5 10.5 10.5H6.75C6.33579 10.5 6 10.1642 6 9.75C6 9.33579 6.33579 9 6.75 9H10.5C10.9142 9 11.25 9.33579 11.25 9.75Z" fill="#0D121C"/>
</g>
<defs>
<clipPath id="clip0_14_71">
<rect width="24" height="24" fill="white"/>
</clipPath>
</defs>
</svg>
