<svg width="105" height="23" viewBox="0 0 105 23" fill="none" xmlns="http://www.w3.org/2000/svg">
<g clip-path="url(#clip0_14_8)">
<path fill-rule="evenodd" clip-rule="evenodd" d="M13.1583 10.7087C13.4527 10.6454 13.5621 10.6863 13.586 10.6978C13.5959 10.7183 13.6182 10.7857 13.6027 10.9445C13.5803 11.1752 13.4834 11.5015 13.2857 11.91C12.8933 12.721 12.1695 13.721 11.1953 14.6953C10.221 15.6695 9.22107 16.3933 8.41003 16.7857C8.00153 16.9834 7.67517 17.0802 7.44453 17.1027C7.2857 17.1182 7.21837 17.0958 7.1978 17.086C7.1863 17.0621 7.14543 16.9527 7.20873 16.6583C7.2854 16.3018 7.48963 15.8219 7.8346 15.2606C8.2525 14.5806 8.8499 13.8248 9.58737 13.0873C10.3248 12.3499 11.0806 11.7525 11.7606 11.3346C12.3219 10.9896 12.8018 10.7854 13.1583 10.7087ZM1.47063 13.2468L6.25323 18.0294C6.6271 18.4032 7.13423 18.4726 7.5739 18.4298C8.0195 18.3863 8.50493 18.221 8.99077 17.986C9.9684 17.5129 11.0873 16.6889 12.1381 15.6381C13.1889 14.5873 14.0129 13.4684 14.486 12.4908C14.721 12.0049 14.8863 11.5195 14.9298 11.0739C14.9726 10.6342 14.9032 10.1271 14.5294 9.75323L9.74677 4.97062C9.28423 4.50809 8.6255 4.50858 8.09537 4.62259C7.53603 4.74288 6.91113 5.02806 6.27987 5.416C5.49927 5.89572 4.6627 6.56118 3.86193 7.36193C3.06118 8.16267 2.39572 8.99927 1.91601 9.77987C1.52807 10.4111 1.24288 11.036 1.12259 11.5954C1.00858 12.1255 1.0081 12.7842 1.47063 13.2468Z" fill="#0D121C"/>
</g>
<path d="M33.584 18V5.4H38.858C39.782 5.4 40.628 5.556 41.396 5.868C42.164 6.168 42.824 6.6 43.376 7.164C43.94 7.728 44.372 8.394 44.672 9.162C44.972 9.93 45.122 10.776 45.122 11.7C45.122 12.624 44.972 13.476 44.672 14.256C44.372 15.024 43.94 15.69 43.376 16.254C42.824 16.806 42.164 17.238 41.396 17.55C40.628 17.85 39.782 18 38.858 18H33.584ZM36.644 15.912L36.23 15.3H38.768C39.272 15.3 39.722 15.216 40.118 15.048C40.514 14.868 40.85 14.622 41.126 14.31C41.414 13.998 41.636 13.62 41.792 13.176C41.948 12.732 42.026 12.24 42.026 11.7C42.026 11.16 41.948 10.668 41.792 10.224C41.636 9.78 41.414 9.402 41.126 9.09C40.85 8.778 40.514 8.538 40.118 8.37C39.722 8.19 39.272 8.1 38.768 8.1H36.176L36.644 7.524V15.912ZM47.3443 18V8.442H50.2243V18H47.3443ZM48.7843 6.552C48.2443 6.552 47.8183 6.426 47.5063 6.174C47.2063 5.91 47.0563 5.538 47.0563 5.058C47.0563 4.626 47.2123 4.272 47.5243 3.996C47.8363 3.72 48.2563 3.582 48.7843 3.582C49.3243 3.582 49.7443 3.714 50.0443 3.978C50.3443 4.23 50.4943 4.59 50.4943 5.058C50.4943 5.502 50.3383 5.862 50.0263 6.138C49.7263 6.414 49.3123 6.552 48.7843 6.552ZM58.6723 18.198C58.2403 18.198 57.8263 18.138 57.4303 18.018C57.0343 17.898 56.6743 17.736 56.3503 17.532C56.0383 17.328 55.7743 17.094 55.5583 16.83C55.3543 16.554 55.2163 16.272 55.1443 15.984L55.7743 15.768L55.6123 17.982H52.9303V4.68H55.8283V10.728L55.2343 10.512C55.3063 10.2 55.4443 9.912 55.6483 9.648C55.8523 9.372 56.1103 9.132 56.4223 8.928C56.7343 8.712 57.0763 8.544 57.4483 8.424C57.8203 8.304 58.2043 8.244 58.6003 8.244C59.4283 8.244 60.1603 8.46 60.7963 8.892C61.4443 9.312 61.9543 9.9 62.3263 10.656C62.6983 11.4 62.8843 12.252 62.8843 13.212C62.8843 14.184 62.6983 15.048 62.3263 15.804C61.9663 16.548 61.4683 17.136 60.8323 17.568C60.1963 17.988 59.4763 18.198 58.6723 18.198ZM57.9163 15.768C58.3483 15.768 58.7263 15.66 59.0503 15.444C59.3743 15.228 59.6203 14.934 59.7883 14.562C59.9683 14.178 60.0583 13.728 60.0583 13.212C60.0583 12.708 59.9683 12.264 59.7883 11.88C59.6203 11.496 59.3743 11.202 59.0503 10.998C58.7263 10.794 58.3483 10.692 57.9163 10.692C57.4723 10.692 57.0883 10.794 56.7643 10.998C56.4403 11.202 56.1883 11.496 56.0083 11.88C55.8283 12.264 55.7383 12.708 55.7383 13.212C55.7383 13.728 55.8283 14.178 56.0083 14.562C56.1883 14.934 56.4403 15.228 56.7643 15.444C57.0883 15.66 57.4723 15.768 57.9163 15.768ZM64.94 18V8.442H67.82V18H64.94ZM66.38 6.552C65.84 6.552 65.414 6.426 65.102 6.174C64.802 5.91 64.652 5.538 64.652 5.058C64.652 4.626 64.808 4.272 65.12 3.996C65.432 3.72 65.852 3.582 66.38 3.582C66.92 3.582 67.34 3.714 67.64 3.978C67.94 4.23 68.09 4.59 68.09 5.058C68.09 5.502 67.934 5.862 67.622 6.138C67.322 6.414 66.908 6.552 66.38 6.552ZM70.832 18V5.4H79.616V8.01H73.802V15.39H79.796V18H70.832ZM72.272 12.834V10.35H78.806V12.834H72.272ZM85.6577 18.198C84.8297 18.198 84.0917 17.988 83.4437 17.568C82.8077 17.136 82.3037 16.548 81.9317 15.804C81.5597 15.048 81.3737 14.19 81.3737 13.23C81.3737 12.27 81.5597 11.418 81.9317 10.674C82.3037 9.918 82.8137 9.324 83.4617 8.892C84.1097 8.46 84.8537 8.244 85.6937 8.244C86.1257 8.244 86.5397 8.31 86.9357 8.442C87.3317 8.574 87.6917 8.754 88.0157 8.982C88.3397 9.21 88.6037 9.474 88.8077 9.774C89.0117 10.062 89.1317 10.362 89.1677 10.674L88.4837 10.836V4.68H91.3817V18H88.6997L88.5377 15.822L89.1137 15.912C89.0777 16.212 88.9577 16.5 88.7537 16.776C88.5617 17.052 88.3097 17.298 87.9977 17.514C87.6857 17.718 87.3257 17.88 86.9177 18C86.5217 18.132 86.1017 18.198 85.6577 18.198ZM86.3957 15.804C86.8397 15.804 87.2237 15.696 87.5477 15.48C87.8717 15.264 88.1177 14.964 88.2857 14.58C88.4657 14.196 88.5557 13.746 88.5557 13.23C88.5557 12.702 88.4657 12.246 88.2857 11.862C88.1177 11.478 87.8717 11.178 87.5477 10.962C87.2237 10.746 86.8397 10.638 86.3957 10.638C85.9517 10.638 85.5677 10.746 85.2437 10.962C84.9317 11.178 84.6857 11.478 84.5057 11.862C84.3257 12.246 84.2357 12.702 84.2357 13.23C84.2357 13.746 84.3257 14.196 84.5057 14.58C84.6857 14.964 84.9317 15.264 85.2437 15.48C85.5677 15.696 85.9517 15.804 86.3957 15.804ZM97.3563 18.198C96.6483 18.198 96.0423 18.048 95.5383 17.748C95.0463 17.436 94.6623 16.992 94.3863 16.416C94.1223 15.84 93.9903 15.15 93.9903 14.346V8.442H96.8883V13.95C96.8883 14.334 96.9483 14.664 97.0683 14.94C97.1883 15.216 97.3683 15.432 97.6083 15.588C97.8483 15.732 98.1363 15.804 98.4723 15.804C98.7243 15.804 98.9523 15.762 99.1563 15.678C99.3723 15.594 99.5523 15.48 99.6963 15.336C99.8523 15.18 99.9723 15.006 100.056 14.814C100.14 14.61 100.182 14.388 100.182 14.148V8.442H103.08V18H100.362L100.236 16.038L100.776 15.822C100.632 16.278 100.392 16.686 100.056 17.046C99.7203 17.394 99.3183 17.676 98.8503 17.892C98.3823 18.096 97.8843 18.198 97.3563 18.198Z" fill="#0D121C"/>
<defs>
<clipPath id="clip0_14_8">
<rect width="16" height="16" fill="white" transform="translate(0 3.5)"/>
</clipPath>
</defs>
</svg>
